<svg xmlns="http://www.w3.org/2000/svg" width="191.106" height="158.325" viewBox="0 0 191.106 158.325">
  <path id="bath" d="M661.694,1931.274H488.03a2.963,2.963,0,1,1,0-5.925H661.694a2.963,2.963,0,1,1,0,5.925M638.836,1977a2.9,2.9,0,0,0-1.608,2.594v9.639a4.871,4.871,0,0,1-9.74,0V1983.7a2.9,2.9,0,0,0-2.9-2.895H525.131a2.9,2.9,0,0,0-2.9,2.895v5.531a4.871,4.871,0,0,1-9.74,0v-9.639a2.9,2.9,0,0,0-1.6-2.59c-11.789-5.894-19.4-18.682-19.4-32.582v-7.386H658.237v7.386c0,14.149-7.434,26.63-19.4,32.578m-95.092-120.43-21.525,12.347c-1.853-5.875-1.284-11.681,1.534-15.3a11.537,11.537,0,0,1,4.109-2.978c4.748-1.593,11.2.836,15.883,5.93m126.672,71.746a8.73,8.73,0,0,0-8.722-8.718h-155v-63.976A8.345,8.345,0,0,1,520.2,1849a13.264,13.264,0,0,0-.95,1.065l-.011.013c-4.185,5.363-5.005,13.375-2.187,21.454a5.122,5.122,0,0,0,4.816,3.4,5.232,5.232,0,0,0,2.543-.673l22.854-13.11a5.1,5.1,0,0,0,1.335-7.747c-6.307-7.323-15.372-10.609-22.673-8.162-.1.041-.424.166-.88.381a14.1,14.1,0,0,0-24.085,9.994v63.976H488.03a8.7,8.7,0,0,0-2.334,17.08v7.745c0,15.44,8.19,29.725,21.005,36.914v7.9a10.664,10.664,0,0,0,21.327,0v-2.635h93.667v2.635a10.664,10.664,0,0,0,21.327,0v-7.892c13.005-7.217,21.012-21.194,21.012-36.919v-7.747a8.7,8.7,0,0,0,6.383-8.36" transform="translate(-479.31 -1841.486)" fill="#272525"/>
</svg>
