<svg xmlns="http://www.w3.org/2000/svg" width="3748.975" height="465.611" viewBox="0 0 3748.975 465.611">
  <g id="nutrien-harcourts-logo" transform="translate(-8106.58 6678.865)">
    <path id="Path_2636" data-name="Path 2636" d="M741.881,106.22,677,354.165c13.112,33.122,25.543,60.539,45.383,78.675l70.842-271.7.6-2.214a47.2,47.2,0,0,0,1.108-9.792c0-25.544-23.245-42.573-53.387-42.573" transform="translate(7654.535 -6767.339)" fill="#001f49"/>
    <path id="Path_2637" data-name="Path 2637" d="M698.222,124.255,650.71,305.616h66.073L743.945,200.8c-12.261-34.825-24.692-61.561-45.723-76.631" transform="translate(7456.976 -6632.454)" fill="#001f49"/>
    <path id="Path_2638" data-name="Path 2638" d="M891.964,356.1H846.24c-8.515,0-13.112-2.3-14.049-6.812a44.364,44.364,0,0,1,1.873-19.754,117.678,117.678,0,0,1-31.675,21.2,114.347,114.347,0,0,1-50.319,9.622q-35.592,0-49.045-14.134a48.531,48.531,0,0,1-12.516-37.039,165.909,165.909,0,0,1,3.235-24.947c1.873-9.026,3.917-17.8,6.215-26.481L735.976,119.4a45.981,45.981,0,0,1,8.515-1.277c4.768-.426,9.876-.681,15.241-.681a80.961,80.961,0,0,1,15.751,1.533,29.891,29.891,0,0,1,13.028,5.79,21.2,21.2,0,0,1,7.408,12.005,41.641,41.641,0,0,1-1.193,20.265l-25.543,97.918c-1.958,7.663-3.576,14.56-4.6,20.69a40.6,40.6,0,0,0,0,16.008,15.411,15.411,0,0,0,7.833,10.473,38.061,38.061,0,0,0,19.329,3.832A73.223,73.223,0,0,0,825.8,298.29,31.505,31.505,0,0,0,844.2,279.132l41.466-159.393a47.665,47.665,0,0,1,8.514-1.277c4.854,0,9.962-.681,15.326-.681a68.12,68.12,0,0,1,15.582,1.788,28.864,28.864,0,0,1,12.857,6.556,23.329,23.329,0,0,1,7.152,13.027,43.583,43.583,0,0,1-1.362,20.691Z" transform="translate(7754.611 -6683.026)" fill="#001f49"/>
    <path id="Path_2639" data-name="Path 2639" d="M722.341,385.183a80.016,80.016,0,0,1,1.022-20.946,224.3,224.3,0,0,1,4.683-21.968L788.414,110.5l7.833-.937q3.576-.511,7.663-.766h8.515a87.453,87.453,0,0,1,15.752,1.618,27.927,27.927,0,0,1,12.943,5.96,23.674,23.674,0,0,1,7.408,12.261A41.8,41.8,0,0,1,847.25,148.9L838.139,183.9H908.47l-13.283,51.088h-70.33L797.014,341.93q-9.11,34.995,19.583,34.995a41.2,41.2,0,0,0,13.879-2.214,103.557,103.557,0,0,0,12.857-4.938,67.376,67.376,0,0,0,10.3-5.705c2.81-2.043,4.938-3.491,6.13-4.513a123.029,123.029,0,0,1,6.641,19.073,29.8,29.8,0,0,1,0,14.986,26.394,26.394,0,0,1-8.515,12.687,73.661,73.661,0,0,1-17.88,11.495,120.58,120.58,0,0,1-25.544,8.514,140.651,140.651,0,0,1-30.482,3.15c-21.116,0-36.272-4.087-45.638-12.091a46.4,46.4,0,0,1-15.924-31.589" transform="translate(7993.202 -6747.952)" fill="#001f49"/>
    <path id="Path_2640" data-name="Path 2640" d="M862.567,147.312a120.392,120.392,0,0,1,10.813-9.962,102.183,102.183,0,0,1,14.986-9.962,94.437,94.437,0,0,1,17.71-7.407,66.763,66.763,0,0,1,19.67-2.98,80.818,80.818,0,0,1,12.516,1.022,34.055,34.055,0,0,1,11.58,3.832,16.005,16.005,0,0,1,7.322,7.492,17.029,17.029,0,0,1,.511,11.75,91.648,91.648,0,0,1-12.005,24.948,258.413,258.413,0,0,1-17.03,24.437,50.4,50.4,0,0,0-14.3-10.728,41.976,41.976,0,0,0-19.073-3.831,49.042,49.042,0,0,0-28.523,8.515,37.463,37.463,0,0,0-16.093,21.457l-40.53,154.284H742L803.475,123.9l6.3-1.022c2.129,0,4.513-.511,7.237-.681s5.961,0,9.621,0a49.21,49.21,0,0,1,26.225,6.3,20.351,20.351,0,0,1,9.878,19.243" transform="translate(8142.983 -6686.333)" fill="#001f49"/>
    <path id="Path_2641" data-name="Path 2641" d="M909.432,141.123a45.9,45.9,0,0,1-17.541,25.544,47.083,47.083,0,0,1-28.523,9.962,26.48,26.48,0,0,1-27.246-36.1,46.829,46.829,0,0,1,17.028-26.14A45.979,45.979,0,0,1,881.93,104.17a28.1,28.1,0,0,1,23.16,10.3,28.608,28.608,0,0,1,4,26.31M825.82,460.591a38.671,38.671,0,0,1-9.452,1.447c-4.767,0-9.876.511-15.156.426a46.746,46.746,0,0,1-29.8-8.515c-6.726-5.534-8-16.6-3.661-33.292L819.774,220.82a65.863,65.863,0,0,1,8.514-1.192,124.758,124.758,0,0,1,15.242-.681A79.442,79.442,0,0,1,859.2,220.48a31.166,31.166,0,0,1,13.112,5.7,22.222,22.222,0,0,1,7.407,12.091,42.573,42.573,0,0,1-1.276,20.179Z" transform="translate(8317.496 -6783.001)" fill="#001f49"/>
    <path id="Path_2642" data-name="Path 2642" d="M948.48,216.64a66.832,66.832,0,0,0,.851-38.912c-3.576-10.047-13.453-15.071-29.46-15.071A52.449,52.449,0,0,0,883,176.791a78.244,78.244,0,0,0-22.478,39.678ZM899.436,318.048a86.006,86.006,0,0,0,22.819-2.725,107.209,107.209,0,0,0,18.9-6.726,100.364,100.364,0,0,0,15.326-8.515l12.261-8.514a99.5,99.5,0,0,1,7.577,19.243,37.288,37.288,0,0,1,1.534,19.243,35.076,35.076,0,0,1-17.8,19.924A124.748,124.748,0,0,1,926.6,363.686a176.765,176.765,0,0,1-46.915,5.62,160.923,160.923,0,0,1-44.872-6.131,74.158,74.158,0,0,1-35.251-21.031,77.652,77.652,0,0,1-18.392-40.274,153.258,153.258,0,0,1,5.449-63.774,171.409,171.409,0,0,1,23.926-54.153,158.117,158.117,0,0,1,35.932-37.634,145.766,145.766,0,0,1,87.019-29.12,100.047,100.047,0,0,1,45.383,8.515,60.45,60.45,0,0,1,25.544,23.5,71.1,71.1,0,0,1,9.025,34.058,139.713,139.713,0,0,1-4.854,40.019c-.511,1.958-1.107,4.257-1.873,6.982s-1.447,5.449-2.384,8.515-1.873,5.96-2.81,8.515-1.788,5.109-2.469,6.726H851.329a66.24,66.24,0,0,0,5.194,45.723q10.3,18.221,42.573,18.391" transform="translate(8428.306 -6685.755)" fill="#001f49"/>
    <path id="Path_2643" data-name="Path 2643" d="M876.808,358.55h-68.8l61.22-234.832,6.215-.937c2.129,0,4.513-.6,7.323-.766s5.875,0,9.537,0A53.556,53.556,0,0,1,918.7,127.89a19.839,19.839,0,0,1,9.537,20.265,112.225,112.225,0,0,1,81.911-30.823q35.76,0,49.129,14.134a48.53,48.53,0,0,1,12.517,37.038,167.257,167.257,0,0,1-3.236,24.948c-1.873,9.025-3.917,17.8-6.216,26.48l-36.187,139.128H958.036l35.506-136.233q2.81-10.984,4.6-20.435a41.9,41.9,0,0,0,0-16.263,16.005,16.005,0,0,0-7.833-10.558,39.079,39.079,0,0,0-19.328-3.747,74.932,74.932,0,0,0-34.059,7.663,31.848,31.848,0,0,0-18.307,19.158Z" transform="translate(8639.022 -6684.535)" fill="#001f49"/>
    <path id="Path_2644" data-name="Path 2644" d="M650.58,106.344a215.346,215.346,0,0,1,65.648,70.586,244.059,244.059,0,0,1,21.03,60.964c46.574.852,66.244,22.053,93.66,70.416,5.875,10.558,12.091,21.372,18.051,31.674h0c-8.515-13.112-18.221-27.587-26.821-39.252-19.328-26.31-44.361-51.088-82.677-51.939H702.433c41.551,23.075,44.787,80.207,71.1,117.416,24.1,34.058,45.383,62.412,106.6,74.247a210.587,210.587,0,0,0,38.487,4.257,166.624,166.624,0,0,1-34.059-44.786,412.284,412.284,0,0,1-29.035-69.99c-11.75-36.953-23.33-82.336-29.035-106.262-11.75-49.044-31.163-93.66-89.063-111.2a310.273,310.273,0,0,0-70.5-6.131H650.749" transform="translate(7456 -6767.294)" fill="#b1cd49"/>
    <rect id="Rectangle_1653" data-name="Rectangle 1653" width="255.608" height="60.539" transform="translate(9909.463 -6273.792)" fill="#00acec"/>
    <path id="Path_2645" data-name="Path 2645" d="M1047.853,227.523H932.31V109.6a277.662,277.662,0,0,0-69.99,13.794v295.2h4.513a292.642,292.642,0,0,0,65.477-11.58V288.743h115.543V418.42a279.8,279.8,0,0,0,69.99-14.049V109a286,286,0,0,0-69.99,11.665Z" transform="translate(9047.138 -6746.45)" fill="#001f49"/>
    <path id="Path_2646" data-name="Path 2646" d="M1031.976,266.972a49.164,49.164,0,0,1-1.448,11.92,38.656,38.656,0,0,1-36.357,25.544A25.544,25.544,0,0,1,966.583,277.7c0-26.651,28.524-35.421,65.393-35.421Zm67.691-51.088c0-53.386-23.5-97.577-98.514-97.577a184.678,184.678,0,0,0-87.53,20.265L926.48,183.7a126.953,126.953,0,0,1,62.242-17.029c34.058,0,40.955,17.029,40.955,29.46v2.725c-79.7,0-132.146,27.672-132.146,86.168a69.054,69.054,0,0,0,72.715,69.053A81.062,81.062,0,0,0,1034.7,326.4h1.361l4.172,22.564h.425a297.246,297.246,0,0,0,60.965-10.217,399.791,399.791,0,0,1-1.958-44.105Z" transform="translate(9311.727 -6676.742)" fill="#001f49"/>
    <path id="Path_2647" data-name="Path 2647" d="M991.454,164.9h-1.447l-2.725-41.04a293.9,293.9,0,0,0-59.6,10.217c.851,17.029,1.191,36.272,1.191,63.434V348.561h69.65V234.806a80.956,80.956,0,0,1,1.447-15.667c4.6-21.627,22.054-35.421,47.853-35.421a103.192,103.192,0,0,1,18.9,1.873v-65.9a69.39,69.39,0,0,0-14.73-1.362,65.561,65.561,0,0,0-60.794,47" transform="translate(9538.292 -6676.419)" fill="#001f49"/>
    <path id="Path_2648" data-name="Path 2648" d="M1078.626,172a95.873,95.873,0,0,1,39.082,6.9l11.069-52.024a161.776,161.776,0,0,0-53.387-8.515c-83.868,0-128.911,53.812-128.911,119.715,0,70.416,46.49,115.032,119.2,115.032a160.324,160.324,0,0,0,62.581-10.558l-8.514-51.6a98.679,98.679,0,0,1-40.019,7.408c-34.058,0-61.731-22.138-61.731-63.093,0-36.868,23.5-63.093,60.369-63.093" transform="translate(9679.566 -6676.195)" fill="#001f49"/>
    <path id="Path_2649" data-name="Path 2649" d="M1088.6,303.8c-29.886,0-45.978-28.95-45.978-67.691,0-33.122,12.857-67.606,45.978-67.606,31.76,0,44.7,34.058,44.7,67.18,0,40.955-17.029,68.117-44.7,68.117m2.3-185.533c-72.715,0-120.567,46.49-120.567,119.715s50.577,116.394,116.394,116.394c60.284,0,119.2-37.8,119.2-120.226,0-68.117-46.064-115.543-114.691-115.543" transform="translate(9858.79 -6676.789)" fill="#001f49"/>
    <path id="Path_2650" data-name="Path 2650" d="M1216.165,118.92h-69.99V252.94a39,39,0,0,1-37.8,39.593c-24.863,0-35.421-19.839-35.421-52.535V118.92h-69.99V251.066c0,69.479,33.122,98.088,79.186,98.088a80.206,80.206,0,0,0,70.416-36.868h1.447l3.15,31.76h6.727a295.533,295.533,0,0,0,53.727-8.515c-.765-17.029-1.447-38.486-1.447-63.944Z" transform="translate(10103.991 -6671.904)" fill="#001f49"/>
    <path id="Path_2651" data-name="Path 2651" d="M1098.589,164.9H1096.8l-2.809-41.125a290.2,290.2,0,0,0-59.6,9.792c.851,17.029,1.193,36.528,1.193,63.944V348.563h69.99V234.808a81.257,81.257,0,0,1,1.361-15.667c4.6-21.627,22.139-35.421,47.854-35.421a103.2,103.2,0,0,1,18.9,1.873v-65.9a68.117,68.117,0,0,0-14.73-1.362,65.648,65.648,0,0,0-60.793,47" transform="translate(10340.175 -6676.422)" fill="#001f49"/>
    <path id="Path_2652" data-name="Path 2652" d="M1122.358,111.32a291.288,291.288,0,0,0-68.628,10.728V319.672c0,31.759,6.386,53.386,19.328,66.754a74.844,74.844,0,0,0,52.96,19.328,147.216,147.216,0,0,0,45.128-5.96l-.511-52.961a86,86,0,0,1-20.691,1.873c-20.691,0-27.587-12.431-27.587-39.593V227.8h50.151V176.2h-50.151Z" transform="translate(10485.506 -6729.016)" fill="#001f49"/>
    <path id="Path_2653" data-name="Path 2653" d="M1180,211.256c-27.588-9.621-36.357-15.156-36.357-26.225s9.706-17.966,26.736-17.966a112.313,112.313,0,0,1,48.789,12.942l12-48.363a148.491,148.491,0,0,0-63.093-13.368c-55.771,0-91.618,31.759-91.618,74.162-.511,26.651,17.456,52.024,64.455,68.117,25.544,8.514,32.7,14.219,32.7,26.225s-8.515,18.392-29.972,18.392a137.686,137.686,0,0,1-60.283-16.518l-12.431,49.64a157.952,157.952,0,0,0,72.716,16.178c64.455,0,97.152-30.908,97.152-73.226-.427-32.7-17.966-54.749-60.794-69.564" transform="translate(10614.758 -6676.795)" fill="#001f49"/>
  </g>
</svg>
