<svg xmlns="http://www.w3.org/2000/svg" width="195.098" height="129.056" viewBox="0 0 195.098 129.056">
  <path id="bed" d="M285.292,1903.279h55.584v-16.131a3.726,3.726,0,0,0-3.721-3.721H289.013a3.726,3.726,0,0,0-3.721,3.721Zm73.982,0h55.774v-16.131a3.726,3.726,0,0,0-3.721-3.721H362.993a3.724,3.724,0,0,0-3.719,3.721Zm61.912,0h6.038v-38.193a3.724,3.724,0,0,0-3.719-3.721H276.726a3.726,3.726,0,0,0-3.721,3.721v38.193h6.151v-16.131a9.87,9.87,0,0,1,9.857-9.86h48.142a9.871,9.871,0,0,1,9.859,9.86v16.131h6.121v-16.131a9.871,9.871,0,0,1,9.857-9.86h48.334a9.872,9.872,0,0,1,9.859,9.86Zm-162.493,32.692h182.8v-19.244a7.322,7.322,0,0,0-7.316-7.31H266.006a7.321,7.321,0,0,0-7.312,7.31Zm11.955,29.516H429.515a3.069,3.069,0,0,1,2.848,1.919l4.2,10.411a.53.53,0,0,0,.486.328h3.919a.527.527,0,0,0,.526-.526v-35.51H258.67v35.51a.528.528,0,0,0,.528.526h3.917a.525.525,0,0,0,.488-.331l4.2-10.409a3.066,3.066,0,0,1,2.846-1.919m170.318,18.8h-3.919a6.635,6.635,0,0,1-6.175-4.164l-3.429-8.495H272.721l-3.427,8.49a6.641,6.641,0,0,1-6.179,4.168H259.2a6.67,6.67,0,0,1-6.665-6.665v-46.208a3.235,3.235,0,0,1,.023-.381v-14.3a13.462,13.462,0,0,1,13.448-13.449h.863v-38.193a9.868,9.868,0,0,1,9.857-9.857H423.506a9.868,9.868,0,0,1,9.857,9.857v38.193h.814a13.466,13.466,0,0,1,13.455,13.449v60.892a6.672,6.672,0,0,1-6.665,6.665" transform="translate(-252.534 -1855.228)" fill="#272525"/>
</svg>
